<svg xmlns="http://www.w3.org/2000/svg" xmlns:svg="http://www.w3.org/2000/svg" xmlns:xlink="http://www.w3.org/1999/xlink" id="svg2" width="12" height="12" version="1.1"><defs id="defs4"><linearGradient id="linearGradient3817"><stop style="stop-color:#00b1ff;stop-opacity:1" id="stop3819" offset="0"/><stop style="stop-color:#7cf7ff;stop-opacity:1" id="stop3821" offset="1"/></linearGradient><linearGradient id="linearGradient3823" x1="6" x2="6" y1="8" y2="4" gradientUnits="userSpaceOnUse" xlink:href="#linearGradient3817"/></defs><metadata id="metadata7"/><g id="layer1" transform="translate(0,-1040.3622)"><path style="fill:url(#linearGradient3823);fill-opacity:1;stroke:none" id="path3815" d="M 8,6 A 2,2 0 1 1 4,6 2,2 0 1 1 8,6 z" transform="matrix(2.5,0,0,2.5,-9,1031.3622)"/><path style="fill:none;stroke:#000;stroke-width:1.79999995;stroke-miterlimit:4;stroke-opacity:1;stroke-dasharray:none" id="path3786" d="M 12,6 A 6,6 0 1 1 0,6 6,6 0 1 1 12,6 z" transform="matrix(0.83333333,0,0,0.83333333,1,1041.3622)"/><rect style="fill:#000;fill-opacity:1;stroke:none" id="rect3788" width="3" height="2" x="1" y="1045.362"/><rect id="rect3790" width="3" height="2" x="8" y="1045.362" style="fill:#000;fill-opacity:1;stroke:none"/><rect style="fill:#000;fill-opacity:1;stroke:none" id="rect3792" width="2" height="3" x="5" y="1041.362"/><rect id="rect3794" width="2" height="3" x="5" y="1048.362" style="fill:#000;fill-opacity:1;stroke:none"/></g></svg>